<svg xmlns="http://www.w3.org/2000/svg" viewBox="0 0 1102.51 222.18"><defs><style>.a{isolation:isolate;}.b{fill:#fff;}</style></defs><title>White Logo No Trees-outline</title><g class="a"><g class="a"><path class="b" d="M218.27,235.11a14.92,14.92,0,0,1-5.9,3.56,23.52,23.52,0,0,1-7.26,1.08,26.34,26.34,0,0,1-7.43-1A18.21,18.21,0,0,1,191.9,236a13.09,13.09,0,0,1-3.75-4.25,11.36,11.36,0,0,1,0-10.75,13.17,13.17,0,0,1,3.75-4.23,18.48,18.48,0,0,1,5.78-2.79,25.91,25.91,0,0,1,7.43-1,23.75,23.75,0,0,1,6.73.92,13.68,13.68,0,0,1,5.48,3.08l-2.7,1.62a9.6,9.6,0,0,0-4.23-2.63,17.17,17.17,0,0,0-5.28-.83,20.93,20.93,0,0,0-6.23.86,14.83,14.83,0,0,0-4.73,2.38,10.6,10.6,0,0,0-3,3.56,9.85,9.85,0,0,0,0,8.86,10.59,10.59,0,0,0,3,3.56,14.85,14.85,0,0,0,4.73,2.38,20.93,20.93,0,0,0,6.23.86,17.58,17.58,0,0,0,2.8-.23,16.25,16.25,0,0,0,2.83-.72,15,15,0,0,0,2.63-1.22,9.47,9.47,0,0,0,2.2-1.78Z" transform="translate(-183.15 -17.57)"/><path class="b" d="M237.33,213.62h9.31l1.9,0q1.2,0,2.6.22a21.08,21.08,0,0,1,2.85.58,9.09,9.09,0,0,1,2.6,1.15,6.52,6.52,0,0,1,1.9,1.91,5,5,0,0,1,.75,2.81,5,5,0,0,1-.88,3,6.81,6.81,0,0,1-2.2,1.93,10.84,10.84,0,0,1-2.93,1.1,25.1,25.1,0,0,1-3.05.5l10.31,12.24h-3.75l-10-12.1h-6.15v12.1h-3.3Zm3.3,11.23h7a15.68,15.68,0,0,0,4.23-.47,7.75,7.75,0,0,0,2.53-1.15,3.65,3.65,0,0,0,1.23-1.48,3.35,3.35,0,0,0,0-2.88,3.64,3.64,0,0,0-1.23-1.48,7.75,7.75,0,0,0-2.53-1.15,15.72,15.72,0,0,0-4.23-.47h-7Z" transform="translate(-183.15 -17.57)"/><path class="b" d="M280,213.62h21.67v2.16H283.32v9.07h17.21V227H283.32v9.94h19.17v2.16H280Z" transform="translate(-183.15 -17.57)"/><path class="b" d="M333.56,213.62H337l14.91,25.49h-3.7l-3.85-6.77H325.55l-4,6.77h-3.45Zm1.55,2.59-8.26,14h16.26Z" transform="translate(-183.15 -17.57)"/><path class="b" d="M377.84,215.78H365.73v-2.16h27.52v2.16H381.14v23.33h-3.3Z" transform="translate(-183.15 -17.57)"/><path class="b" d="M411.72,213.62H415v25.49h-3.3Z" transform="translate(-183.15 -17.57)"/><path class="b" d="M437.74,213.62H442l21.57,22.32h.1V213.62H467v25.49h-4.25l-21.57-22.32H441v22.32h-3.3Z" transform="translate(-183.15 -17.57)"/><path class="b" d="M518.9,237.45a28.9,28.9,0,0,1-6.43,1.78,43.75,43.75,0,0,1-6.78.52,26.34,26.34,0,0,1-7.43-1,18.21,18.21,0,0,1-5.78-2.77,13.09,13.09,0,0,1-3.75-4.25,11.36,11.36,0,0,1,0-10.75,13.17,13.17,0,0,1,3.75-4.23,18.48,18.48,0,0,1,5.78-2.79,25.91,25.91,0,0,1,7.43-1q7.91,0,12.76,3.53l-2.4,1.8a9.92,9.92,0,0,0-2-1.28,15.74,15.74,0,0,0-2.55-1,21.73,21.73,0,0,0-2.88-.65,19.25,19.25,0,0,0-3-.23,20.92,20.92,0,0,0-6.23.86,14.82,14.82,0,0,0-4.73,2.38,10.6,10.6,0,0,0-3,3.56,9.86,9.86,0,0,0,0,8.86,10.59,10.59,0,0,0,3,3.56,14.84,14.84,0,0,0,4.73,2.38,20.92,20.92,0,0,0,6.23.86,41.61,41.61,0,0,0,5.35-.32,17.42,17.42,0,0,0,4.55-1.19v-8.57h-8.51v-2.16H518.9Z" transform="translate(-183.15 -17.57)"/><path class="b" d="M596.81,235.11a14.92,14.92,0,0,1-5.91,3.56,23.52,23.52,0,0,1-7.26,1.08,26.34,26.34,0,0,1-7.43-1,18.21,18.21,0,0,1-5.78-2.77,13.09,13.09,0,0,1-3.75-4.25,11.36,11.36,0,0,1,0-10.75,13.17,13.17,0,0,1,3.75-4.23,18.48,18.48,0,0,1,5.78-2.79,25.91,25.91,0,0,1,7.43-1,23.75,23.75,0,0,1,6.73.92,13.67,13.67,0,0,1,5.48,3.08l-2.7,1.62a9.59,9.59,0,0,0-4.23-2.63,17.16,17.16,0,0,0-5.28-.83,20.92,20.92,0,0,0-6.23.86,14.82,14.82,0,0,0-4.73,2.38,10.6,10.6,0,0,0-3,3.56,9.86,9.86,0,0,0,0,8.86,10.59,10.59,0,0,0,3,3.56,14.84,14.84,0,0,0,4.73,2.38,20.92,20.92,0,0,0,6.23.86,17.58,17.58,0,0,0,2.8-.23,16.26,16.26,0,0,0,2.83-.72,15,15,0,0,0,2.63-1.22,9.45,9.45,0,0,0,2.2-1.78Z" transform="translate(-183.15 -17.57)"/><path class="b" d="M613.58,226.37a10.91,10.91,0,0,1,1.35-5.36,13.17,13.17,0,0,1,3.75-4.23,18.48,18.48,0,0,1,5.78-2.79,27.87,27.87,0,0,1,14.86,0,18.48,18.48,0,0,1,5.78,2.79,13.17,13.17,0,0,1,3.75,4.23,11.36,11.36,0,0,1,0,10.75A13.09,13.09,0,0,1,645.1,236a18.21,18.21,0,0,1-5.78,2.77,28.38,28.38,0,0,1-14.86,0,18.21,18.21,0,0,1-5.78-2.77,13.09,13.09,0,0,1-3.75-4.25A11,11,0,0,1,613.58,226.37Zm3.3,0a9.58,9.58,0,0,0,1.05,4.43,10.59,10.59,0,0,0,3,3.56,14.84,14.84,0,0,0,4.73,2.38,22.91,22.91,0,0,0,12.46,0,14.84,14.84,0,0,0,4.73-2.38,10.59,10.59,0,0,0,3-3.56,9.86,9.86,0,0,0,0-8.86,10.6,10.6,0,0,0-3-3.56,14.82,14.82,0,0,0-4.73-2.38,22.89,22.89,0,0,0-12.46,0,14.82,14.82,0,0,0-4.73,2.38,10.6,10.6,0,0,0-3,3.56A9.58,9.58,0,0,0,616.88,226.37Z" transform="translate(-183.15 -17.57)"/><path class="b" d="M670.27,213.62h5L688.14,235,701,213.62h4.7v25.49h-3.3V216.65h-.1l-13.51,22.46h-1.45l-13.71-22.46h-.1v22.46h-3.3Z" transform="translate(-183.15 -17.57)"/><path class="b" d="M727.77,213.62h5L745.63,235l12.91-21.38h4.7v25.49h-3.3V216.65h-.1l-13.51,22.46h-1.45l-13.71-22.46h-.1v22.46h-3.3Z" transform="translate(-183.15 -17.57)"/><path class="b" d="M810.78,229.35a11.87,11.87,0,0,1-.65,3.92,8.22,8.22,0,0,1-2.18,3.31,11,11,0,0,1-4,2.3,21.84,21.84,0,0,1-12.16,0,11,11,0,0,1-4-2.3,8.22,8.22,0,0,1-2.18-3.31,11.86,11.86,0,0,1-.65-3.92V213.62h3.3v15.12a13.18,13.18,0,0,0,.35,2.92,7.31,7.31,0,0,0,1.38,2.88,7.56,7.56,0,0,0,2.9,2.2,14.79,14.79,0,0,0,10,0,7.57,7.57,0,0,0,2.9-2.2,7.34,7.34,0,0,0,1.38-2.88,13.24,13.24,0,0,0,.35-2.92V213.62h3.3Z" transform="translate(-183.15 -17.57)"/><path class="b" d="M832.85,213.62h4.25l21.57,22.32h.1V213.62h3.3v25.49h-4.25l-21.57-22.32h-.1v22.32h-3.3Z" transform="translate(-183.15 -17.57)"/><path class="b" d="M884.79,213.62h3.3v25.49h-3.3Z" transform="translate(-183.15 -17.57)"/><path class="b" d="M918.67,215.78H906.56v-2.16h27.52v2.16H922v23.33h-3.3Z" transform="translate(-183.15 -17.57)"/><path class="b" d="M960.4,228.13l-13-14.51h4l10.71,12.1,11-12.1h3.7l-13,14.51v11h-3.3Z" transform="translate(-183.15 -17.57)"/><path class="b" d="M1033.31,213.62h3.3v23.33h16.51v2.16h-19.82Z" transform="translate(-183.15 -17.57)"/><path class="b" d="M1071.34,213.62H1093v2.16h-18.37v9.07h17.21V227h-17.21v9.94h19.17v2.16h-22.47Z" transform="translate(-183.15 -17.57)"/><path class="b" d="M1143.24,237.45a28.9,28.9,0,0,1-6.43,1.78,43.74,43.74,0,0,1-6.78.52,26.34,26.34,0,0,1-7.43-1,18.21,18.21,0,0,1-5.78-2.77,13.09,13.09,0,0,1-3.75-4.25,11.36,11.36,0,0,1,0-10.75,13.17,13.17,0,0,1,3.75-4.23,18.48,18.48,0,0,1,5.78-2.79,25.91,25.91,0,0,1,7.43-1q7.91,0,12.76,3.53l-2.4,1.8a9.92,9.92,0,0,0-2-1.28,15.74,15.74,0,0,0-2.55-1,21.73,21.73,0,0,0-2.88-.65,19.25,19.25,0,0,0-3-.23,20.92,20.92,0,0,0-6.23.86,14.82,14.82,0,0,0-4.73,2.38,10.6,10.6,0,0,0-3,3.56,9.86,9.86,0,0,0,0,8.86,10.59,10.59,0,0,0,3,3.56,14.84,14.84,0,0,0,4.73,2.38,20.92,20.92,0,0,0,6.23.86,41.61,41.61,0,0,0,5.35-.32,17.42,17.42,0,0,0,4.55-1.19v-8.57h-8.51v-2.16h11.81Z" transform="translate(-183.15 -17.57)"/><path class="b" d="M1176.82,213.62h3.4l14.91,25.49h-3.7l-3.85-6.77h-18.76l-4,6.77h-3.45Zm1.55,2.59-8.26,14h16.26Z" transform="translate(-183.15 -17.57)"/><path class="b" d="M1242.42,235.11a14.92,14.92,0,0,1-5.91,3.56,23.52,23.52,0,0,1-7.26,1.08,26.34,26.34,0,0,1-7.43-1,18.21,18.21,0,0,1-5.78-2.77,13.09,13.09,0,0,1-3.75-4.25,11.36,11.36,0,0,1,0-10.75,13.17,13.17,0,0,1,3.75-4.23,18.48,18.48,0,0,1,5.78-2.79,25.91,25.91,0,0,1,7.43-1,23.75,23.75,0,0,1,6.73.92,13.67,13.67,0,0,1,5.48,3.08l-2.7,1.62a9.59,9.59,0,0,0-4.23-2.63,17.16,17.16,0,0,0-5.28-.83,20.92,20.92,0,0,0-6.23.86,14.82,14.82,0,0,0-4.73,2.38,10.6,10.6,0,0,0-3,3.56,9.86,9.86,0,0,0,0,8.86,10.59,10.59,0,0,0,3,3.56,14.84,14.84,0,0,0,4.73,2.38,20.92,20.92,0,0,0,6.23.86,17.58,17.58,0,0,0,2.8-.23,16.26,16.26,0,0,0,2.83-.72,15,15,0,0,0,2.63-1.22,9.45,9.45,0,0,0,2.2-1.78Z" transform="translate(-183.15 -17.57)"/><path class="b" d="M1269.34,228.13l-13-14.51h4l10.71,12.1,11-12.1h3.7l-13,14.51v11h-3.3Z" transform="translate(-183.15 -17.57)"/></g></g><g class="a"><g class="a"><path class="b" d="M198,87.59v48.93h-14.9v-102H198V81h44.58V34.49h14.9v102h-14.9V87.59Z" transform="translate(-183.15 -17.57)"/><path class="b" d="M307,138.2a29,29,0,0,1-13-3A34.33,34.33,0,0,1,283.3,127a39.22,39.22,0,0,1-7.2-12.09,41.22,41.22,0,0,1-2.64-14.83,60.6,60.6,0,0,1,2.42-17.5,44.12,44.12,0,0,1,6.81-13.92,31.78,31.78,0,0,1,10.6-9.16,29,29,0,0,1,13.79-3.3A28,28,0,0,1,319.44,59a30.05,30.05,0,0,1,9.62,7.29,33.68,33.68,0,0,1,6.24,10.58,35.92,35.92,0,0,1,2.23,12.6h-51a57.52,57.52,0,0,0,1.78,14.69,40,40,0,0,0,5,11.68,24.75,24.75,0,0,0,7.64,7.69,18,18,0,0,0,9.74,2.78,22.56,22.56,0,0,0,8.53-1.65,29,29,0,0,0,7.39-4.32,27.53,27.53,0,0,0,5.64-6.15,23.53,23.53,0,0,0,3.28-7.14l3.88,2a38.86,38.86,0,0,1-4.74,11.39,42.7,42.7,0,0,1-7.64,9.27,35.82,35.82,0,0,1-9.55,6.26A25.57,25.57,0,0,1,307,138.2Zm13.57-55.08a24.63,24.63,0,0,0-1.37-8.31,21.22,21.22,0,0,0-3.76-6.67,17.68,17.68,0,0,0-5.6-4.43,15.23,15.23,0,0,0-6.91-1.61A11.77,11.77,0,0,0,297,63.72a17.31,17.31,0,0,0-5,4.39,24.31,24.31,0,0,0-3.63,6.63,29.73,29.73,0,0,0-1.75,8.31Z" transform="translate(-183.15 -17.57)"/><path class="b" d="M352.12,57.86h13.5V72.73a67.7,67.7,0,0,1,4.27-6.3,40.07,40.07,0,0,1,4.78-5.27,22.59,22.59,0,0,1,5.13-3.59,11.93,11.93,0,0,1,5.38-1.32,11,11,0,0,1,4.14.77,11.31,11.31,0,0,1,3.34,2.05,9.57,9.57,0,0,1,2.26,3,8.27,8.27,0,0,1,.83,3.63,7.51,7.51,0,0,1-2.07,5.75,8.1,8.1,0,0,1-5.76,1.94,10,10,0,0,1-3.66-.55,15.64,15.64,0,0,1-2.48-1.25,23.33,23.33,0,0,0-2.26-1.25,6.62,6.62,0,0,0-2.87-.55,4.86,4.86,0,0,0-2.71.92,13.17,13.17,0,0,0-2.74,2.56,35.92,35.92,0,0,0-2.77,3.88q-1.4,2.24-2.8,4.87v54.49h-13.5Z" transform="translate(-183.15 -17.57)"/><path class="b" d="M411.73,17.57a7.53,7.53,0,0,1,3,.62,7.88,7.88,0,0,1,2.48,1.68,8.33,8.33,0,0,1,1.69,2.49,7.57,7.57,0,0,1,0,6.08,8.31,8.31,0,0,1-1.69,2.49,7.83,7.83,0,0,1-2.48,1.68,7.5,7.5,0,0,1-3,.62,7.28,7.28,0,0,1-3-.62,7.93,7.93,0,0,1-2.45-1.68,8.29,8.29,0,0,1-1.69-2.49,7.57,7.57,0,0,1,0-6.08,8.31,8.31,0,0,1,1.69-2.49,8,8,0,0,1,2.45-1.68A7.3,7.3,0,0,1,411.73,17.57Zm-6.62,43.14,9.55-4.47h3.95v80.27h-13.5Z" transform="translate(-183.15 -17.57)"/><path class="b" d="M471.6,126.49a22.63,22.63,0,0,1-7.26,8.57,19,19,0,0,1-11.15,3.15,12.66,12.66,0,0,1-6-1.32,11.42,11.42,0,0,1-4.17-3.74,17.07,17.07,0,0,1-2.45-5.79,32.48,32.48,0,0,1-.8-7.47V64.45H428V60.57a17.1,17.1,0,0,0,9.43-2.38,18.63,18.63,0,0,0,6.05-6.45,36.21,36.21,0,0,0,3.69-9.41Q448.48,37,449.5,31h3.89V57.86h15.35v6.59H453.38v55.44a9.36,9.36,0,0,0,.57,3.3,8.59,8.59,0,0,0,1.56,2.67,7.25,7.25,0,0,0,2.36,1.79,6.59,6.59,0,0,0,2.9.66,7.24,7.24,0,0,0,4.17-1.28,13.51,13.51,0,0,0,3.28-3.19Z" transform="translate(-183.15 -17.57)"/><path class="b" d="M530.19,136.52H516.56V125.75q-2.42,2.13-4.75,4.32a39.62,39.62,0,0,1-5,4,25.51,25.51,0,0,1-6,3,23.26,23.26,0,0,1-7.61,1.14,17.11,17.11,0,0,1-7.26-1.5,16.33,16.33,0,0,1-5.54-4.14,18.24,18.24,0,0,1-3.5-6.23,24.14,24.14,0,0,1-1.21-7.76,22.82,22.82,0,0,1,1.75-9.12,25.06,25.06,0,0,1,4.78-7.29,34.26,34.26,0,0,1,7.07-5.71A69.24,69.24,0,0,1,497.84,92a97.06,97.06,0,0,1,9.33-3.52q4.81-1.54,9.39-2.86V80.71a38,38,0,0,0-.92-9,16.41,16.41,0,0,0-2.64-6,9.78,9.78,0,0,0-4.17-3.26,14.62,14.62,0,0,0-5.51-1,13.16,13.16,0,0,0-5.6,1,8.82,8.82,0,0,0-3.41,2.71A9.69,9.69,0,0,0,492.62,69a21.47,21.47,0,0,0-.45,4.36,26.56,26.56,0,0,1-.29,4,10.25,10.25,0,0,1-1.05,3.33A6.34,6.34,0,0,1,488.76,83a5.87,5.87,0,0,1-3.34.88,6.05,6.05,0,0,1-2.9-.7,6.94,6.94,0,0,1-2.26-1.94,9.05,9.05,0,0,1-1.46-2.93,12.57,12.57,0,0,1-.51-3.66,12.9,12.9,0,0,1,2.23-7.25,20.47,20.47,0,0,1,6-5.82,31.91,31.91,0,0,1,8.79-3.88,38.53,38.53,0,0,1,10.57-1.43,37.51,37.51,0,0,1,11.4,1.5A19.47,19.47,0,0,1,524.78,62a15.62,15.62,0,0,1,4.14,6.59,27.39,27.39,0,0,1,1.27,8.57ZM516.56,90.67q-2.93,1.1-6.08,2.49a68.4,68.4,0,0,0-6.18,3.11,58.85,58.85,0,0,0-5.76,3.74,32.72,32.72,0,0,0-4.81,4.28,19.57,19.57,0,0,0-3.28,4.83,12.38,12.38,0,0,0-1.21,5.35,16.16,16.16,0,0,0,.92,5.46,15.8,15.8,0,0,0,2.45,4.54,12,12,0,0,0,3.53,3.08,8.35,8.35,0,0,0,4.17,1.14,13.57,13.57,0,0,0,4.36-.7,20.19,20.19,0,0,0,4-1.87,34.27,34.27,0,0,0,3.89-2.75q1.94-1.57,4-3.33Z" transform="translate(-183.15 -17.57)"/><path class="b" d="M616.24,62v6.52h-13a29.4,29.4,0,0,1,3.25,7.21,27.3,27.3,0,0,1,1.21,7.95,25.43,25.43,0,0,1-8.92,19.81,29.85,29.85,0,0,1-10,5.6,39.73,39.73,0,0,1-12.83,2,28.17,28.17,0,0,1-5.25-.51,29,29,0,0,1-4.68-1.25,16.92,16.92,0,0,0-3.31,4.25,10,10,0,0,0-1.34,4.91,4.39,4.39,0,0,0,2.26,3.81,12.45,12.45,0,0,0,6.34,1.61l25.35,1.25a38.07,38.07,0,0,1,10.09,1.65,17.71,17.71,0,0,1,6.46,3.59,12.17,12.17,0,0,1,3.41,5.38,23.19,23.19,0,0,1,1,7,27.56,27.56,0,0,1-2.77,12.45,26.44,26.44,0,0,1-8,9.48,38.81,38.81,0,0,1-12.77,6,62.57,62.57,0,0,1-17,2.12q-16.94,0-25.32-4.39T542,156.73a14.55,14.55,0,0,1,1.4-6.23,28.36,28.36,0,0,1,3.6-5.75,51.36,51.36,0,0,1,4.87-5.27q2.67-2.53,5.29-4.87A19.61,19.61,0,0,1,553.6,133a13.22,13.22,0,0,1-2.8-2.16,10.21,10.21,0,0,1-1.88-2.64,7,7,0,0,1-.7-3.11,12.49,12.49,0,0,1,1.08-4.94,20.49,20.49,0,0,1,3-4.87,26.82,26.82,0,0,1,4.43-4.28,25.33,25.33,0,0,1,5.38-3.19,26.06,26.06,0,0,1-10.83-9.41,25.09,25.09,0,0,1-3.89-13.88,26.36,26.36,0,0,1,2.32-10.95,28.36,28.36,0,0,1,6.37-9,30.15,30.15,0,0,1,9.55-6.08,31.15,31.15,0,0,1,11.81-2.23,38.53,38.53,0,0,1,6.05.48A43.51,43.51,0,0,1,589.07,58a27.13,27.13,0,0,1,4.59,1.79,11,11,0,0,1,3.09,2.2Zm-54.9,73.9a16.46,16.46,0,0,0-2.67,2.93,19.42,19.42,0,0,0-1.94,3.41,19.75,19.75,0,0,0-1.21,3.59,15.11,15.11,0,0,0-.41,3.41,8.93,8.93,0,0,0,1.62,5.05,14,14,0,0,0,4.84,4.25,29.57,29.57,0,0,0,8.06,2.93,51.33,51.33,0,0,0,11.27,1.1,54.75,54.75,0,0,0,12.23-1.25,36.13,36.13,0,0,0,9.17-3.3A18.22,18.22,0,0,0,608,153.4a8.25,8.25,0,0,0,2-5.09,8.1,8.1,0,0,0-4.55-7.69q-4.55-2.42-12.45-2.42-4.91,0-9.94-.26t-9.39-.62q-4.36-.37-7.64-.77T561.34,135.86Zm16.94-28.93a11.17,11.17,0,0,0,5.54-1.5,15.6,15.6,0,0,0,4.71-4.14,21.33,21.33,0,0,0,3.25-6.15A23,23,0,0,0,593,87.59a40.1,40.1,0,0,0-1.37-10.73,31.25,31.25,0,0,0-3.73-8.61,19.43,19.43,0,0,0-5.48-5.75,11.72,11.72,0,0,0-6.62-2.09,10.62,10.62,0,0,0-6,1.65,12.86,12.86,0,0,0-4.14,4.5,22.26,22.26,0,0,0-2.39,6.74,43.25,43.25,0,0,0-.76,8.35,41.23,41.23,0,0,0,1.15,10,28.65,28.65,0,0,0,3.22,8,16.76,16.76,0,0,0,5,5.35A11.25,11.25,0,0,0,578.28,106.93Z" transform="translate(-183.15 -17.57)"/><path class="b" d="M659.29,138.2a29,29,0,0,1-13-3A34.33,34.33,0,0,1,635.63,127a39.22,39.22,0,0,1-7.2-12.09,41.22,41.22,0,0,1-2.64-14.83,60.6,60.6,0,0,1,2.42-17.5A44.12,44.12,0,0,1,635,68.7a31.78,31.78,0,0,1,10.6-9.16,29,29,0,0,1,13.79-3.3A28,28,0,0,1,671.78,59a30.05,30.05,0,0,1,9.62,7.29,33.68,33.68,0,0,1,6.24,10.58,35.92,35.92,0,0,1,2.23,12.6h-51a57.52,57.52,0,0,0,1.78,14.69,40,40,0,0,0,5,11.68,24.75,24.75,0,0,0,7.64,7.69,18,18,0,0,0,9.74,2.78,22.56,22.56,0,0,0,8.53-1.65,29,29,0,0,0,7.39-4.32,27.53,27.53,0,0,0,5.64-6.15,23.53,23.53,0,0,0,3.28-7.14l3.88,2A38.86,38.86,0,0,1,687,120.37a42.7,42.7,0,0,1-7.64,9.27,35.82,35.82,0,0,1-9.55,6.26A25.57,25.57,0,0,1,659.29,138.2Zm13.57-55.08a24.63,24.63,0,0,0-1.37-8.31,21.22,21.22,0,0,0-3.76-6.67,17.68,17.68,0,0,0-5.6-4.43,15.23,15.23,0,0,0-6.91-1.61,11.77,11.77,0,0,0-5.89,1.61,17.31,17.31,0,0,0-5,4.39,24.31,24.31,0,0,0-3.63,6.63,29.73,29.73,0,0,0-1.75,8.31Z" transform="translate(-183.15 -17.57)"/><path class="b" d="M834.57,39.47a33.22,33.22,0,0,0-14.78,3.3,34.35,34.35,0,0,0-11.69,9.38,44.31,44.31,0,0,0-7.67,14.72,64.13,64.13,0,0,0-2.74,19.41,59,59,0,0,0,3,19.41,45.5,45.5,0,0,0,8.15,14.72A35.8,35.8,0,0,0,821,129.78a34.86,34.86,0,0,0,15,3.3,29,29,0,0,0,10.57-1.83A26.72,26.72,0,0,0,855,126V90.23H838.26V84.15h31.65V129a72.82,72.82,0,0,1-7.83,4.25,56.7,56.7,0,0,1-8.5,3.11,63.79,63.79,0,0,1-10.06,1.9,112.07,112.07,0,0,1-12.45.62,50.58,50.58,0,0,1-14-1.9,49.63,49.63,0,0,1-12.29-5.35,49.08,49.08,0,0,1-10.19-8.28,51.08,51.08,0,0,1-7.74-10.69,54.56,54.56,0,0,1-4.9-12.56,55.61,55.61,0,0,1-1.72-13.88,59.29,59.29,0,0,1,6.37-26.81,52.81,52.81,0,0,1,7.48-11,49.1,49.1,0,0,1,10-8.64,47.52,47.52,0,0,1,12.07-5.64,47,47,0,0,1,13.92-2,37.36,37.36,0,0,1,13,2.2A44.06,44.06,0,0,1,854,40.17a46.42,46.42,0,0,1,8.76,8.39,64,64,0,0,1,6.56,9.89l-6.43,5Q857.24,51,850.36,45.26A23.84,23.84,0,0,0,834.57,39.47Z" transform="translate(-183.15 -17.57)"/><path class="b" d="M937.81,136.52H924.18V125.75q-2.42,2.13-4.74,4.32a39.63,39.63,0,0,1-5,4,25.49,25.49,0,0,1-6,3,23.26,23.26,0,0,1-7.61,1.14,17.12,17.12,0,0,1-7.26-1.5,16.34,16.34,0,0,1-5.54-4.14,18.26,18.26,0,0,1-3.5-6.23,24.15,24.15,0,0,1-1.21-7.76,22.8,22.8,0,0,1,1.75-9.12,25,25,0,0,1,4.78-7.29,34.3,34.3,0,0,1,7.07-5.71A69.31,69.31,0,0,1,905.46,92a97,97,0,0,1,9.33-3.52q4.81-1.54,9.39-2.86V80.71a38,38,0,0,0-.92-9,16.41,16.41,0,0,0-2.64-6,9.78,9.78,0,0,0-4.17-3.26,14.62,14.62,0,0,0-5.51-1,13.16,13.16,0,0,0-5.6,1,8.82,8.82,0,0,0-3.41,2.71A9.7,9.7,0,0,0,900.23,69a21.54,21.54,0,0,0-.45,4.36,26.5,26.5,0,0,1-.29,4,10.22,10.22,0,0,1-1.05,3.33A6.35,6.35,0,0,1,896.38,83a5.87,5.87,0,0,1-3.34.88,6.05,6.05,0,0,1-2.9-.7,6.94,6.94,0,0,1-2.26-1.94,9.05,9.05,0,0,1-1.46-2.93,12.56,12.56,0,0,1-.51-3.66,12.89,12.89,0,0,1,2.23-7.25,20.46,20.46,0,0,1,6-5.82,31.92,31.92,0,0,1,8.79-3.88,38.54,38.54,0,0,1,10.57-1.43,37.5,37.5,0,0,1,11.4,1.5A19.48,19.48,0,0,1,932.4,62a15.63,15.63,0,0,1,4.14,6.59,27.39,27.39,0,0,1,1.27,8.57ZM924.18,90.67q-2.93,1.1-6.08,2.49a68.33,68.33,0,0,0-6.18,3.11,58.78,58.78,0,0,0-5.76,3.74,32.69,32.69,0,0,0-4.81,4.28,19.54,19.54,0,0,0-3.28,4.83,12.37,12.37,0,0,0-1.21,5.35,16.19,16.19,0,0,0,.92,5.46,15.82,15.82,0,0,0,2.45,4.54,12,12,0,0,0,3.54,3.08,8.35,8.35,0,0,0,4.17,1.14,13.57,13.57,0,0,0,4.36-.7,20.18,20.18,0,0,0,4-1.87,34.18,34.18,0,0,0,3.88-2.75q1.94-1.57,4-3.33Z" transform="translate(-183.15 -17.57)"/></g><g class="a"><path class="b" d="M956.19,57.86h13.51V72.73a67.71,67.71,0,0,1,4.27-6.3,40.05,40.05,0,0,1,4.78-5.27,22.59,22.59,0,0,1,5.13-3.59,12,12,0,0,1,5.38-1.32,11,11,0,0,1,4.14.77,11.32,11.32,0,0,1,3.35,2.05,9.56,9.56,0,0,1,2.26,3,8.27,8.27,0,0,1,.83,3.63,7.51,7.51,0,0,1-2.07,5.75A8.1,8.1,0,0,1,992,73.39a10,10,0,0,1-3.66-.55,15.65,15.65,0,0,1-2.49-1.25,23.29,23.29,0,0,0-2.26-1.25,6.62,6.62,0,0,0-2.87-.55,4.86,4.86,0,0,0-2.71.92,13.17,13.17,0,0,0-2.74,2.56,36.05,36.05,0,0,0-2.77,3.88q-1.4,2.24-2.8,4.87v54.49H956.19Z" transform="translate(-183.15 -17.57)"/></g><g class="a"><path class="b" d="M1056,128.83a33.92,33.92,0,0,1-5.1,3.92,36.83,36.83,0,0,1-5.7,2.93,36.29,36.29,0,0,1-6,1.87,27.67,27.67,0,0,1-5.89.66A21.27,21.27,0,0,1,1022,135a31.52,31.52,0,0,1-9.18-8.72,44.67,44.67,0,0,1-6.18-12.74,51.11,51.11,0,0,1-2.26-15.31,43.13,43.13,0,0,1,1.31-10.55,48.13,48.13,0,0,1,3.63-9.85,44.77,44.77,0,0,1,5.61-8.61,39.41,39.41,0,0,1,7.3-6.85,34,34,0,0,1,8.57-4.5,28.38,28.38,0,0,1,9.53-1.61,18.21,18.21,0,0,1,8.73,2,28.16,28.16,0,0,1,6.95,5.31V22l9.49-4.47h4V138.21H1056Zm0-46a23.15,23.15,0,0,0-1.5-8.46,21.37,21.37,0,0,0-3.92-6.56,17.94,17.94,0,0,0-5.48-4.21,13.91,13.91,0,0,0-6.18-1.5,13.53,13.53,0,0,0-7.61,2.34,21.36,21.36,0,0,0-6.18,6.52A35.37,35.37,0,0,0,1021,81a50.25,50.25,0,0,0-1.53,12.78,56,56,0,0,0,1.69,14,42.69,42.69,0,0,0,4.62,11.43,25.43,25.43,0,0,0,6.85,7.69,14.08,14.08,0,0,0,8.38,2.82,14.51,14.51,0,0,0,4.3-.66,20.67,20.67,0,0,0,4.08-1.76,23.37,23.37,0,0,0,3.66-2.56,21.86,21.86,0,0,0,3-3.08Z" transform="translate(-183.15 -17.57)"/><path class="b" d="M1115.81,138.21a29,29,0,0,1-13-3,34.3,34.3,0,0,1-10.64-8.17,39.19,39.19,0,0,1-7.2-12.08,41.19,41.19,0,0,1-2.64-14.83,60.58,60.58,0,0,1,2.42-17.5,44.13,44.13,0,0,1,6.82-13.92,31.79,31.79,0,0,1,10.61-9.16,29,29,0,0,1,13.8-3.3A28,28,0,0,1,1128.3,59a30.06,30.06,0,0,1,9.62,7.29,33.69,33.69,0,0,1,6.25,10.58,35.91,35.91,0,0,1,2.23,12.6h-51a57.52,57.52,0,0,0,1.78,14.69,40,40,0,0,0,5,11.68,24.76,24.76,0,0,0,7.65,7.69,18.06,18.06,0,0,0,9.75,2.78,22.58,22.58,0,0,0,8.54-1.65,29,29,0,0,0,7.39-4.32,27.54,27.54,0,0,0,5.64-6.15,23.51,23.51,0,0,0,3.28-7.14l3.89,2a38.88,38.88,0,0,1-4.75,11.39,42.7,42.7,0,0,1-7.65,9.26,35.86,35.86,0,0,1-9.56,6.26A25.61,25.61,0,0,1,1115.81,138.21Zm13.57-55.08a24.61,24.61,0,0,0-1.37-8.31,21.22,21.22,0,0,0-3.76-6.67,17.68,17.68,0,0,0-5.61-4.43,15.24,15.24,0,0,0-6.91-1.61,11.78,11.78,0,0,0-5.89,1.61,17.32,17.32,0,0,0-5,4.39,24.29,24.29,0,0,0-3.63,6.63,29.71,29.71,0,0,0-1.75,8.31Z" transform="translate(-183.15 -17.57)"/><path class="b" d="M1161,57.86h13.57V72.21a47.5,47.5,0,0,1,12.87-12,26.33,26.33,0,0,1,13.64-4,13,13,0,0,1,6.72,1.87,18.17,18.17,0,0,1,5.48,5.09,26.41,26.41,0,0,1,3.7,7.58,30.74,30.74,0,0,1,1.37,9.27v56.47H1204.7V82.69q0-7.76-3.06-11.79a9.43,9.43,0,0,0-7.84-4,14.56,14.56,0,0,0-4.59.81,24.51,24.51,0,0,0-4.91,2.31,39.64,39.64,0,0,0-5,3.59,47,47,0,0,0-4.78,4.65v58.3H1161Z" transform="translate(-183.15 -17.57)"/><path class="b" d="M1255.8,132.79a13.26,13.26,0,0,0,9.21-3.59,11.81,11.81,0,0,0,2.64-3.73,10.44,10.44,0,0,0,1-4.32,12.21,12.21,0,0,0-1.56-6.26,18.46,18.46,0,0,0-4.14-4.83,33.92,33.92,0,0,0-5.89-3.92q-3.31-1.76-6.72-3.63t-6.72-4a30.57,30.57,0,0,1-5.89-5,21.46,21.46,0,0,1-5.7-15.27,21.79,21.79,0,0,1,1.75-8.79,21,21,0,0,1,4.84-7,22.1,22.1,0,0,1,7.39-4.58,26.06,26.06,0,0,1,9.4-1.65,35.31,35.31,0,0,1,6.37.55,19.06,19.06,0,0,1,5.83,2.12,25.74,25.74,0,0,1,5.67,4.43,49.4,49.4,0,0,1,5.89,7.47l-5,5.13q-3.89-7.32-8.7-10.91a16.91,16.91,0,0,0-10.29-3.59,16,16,0,0,0-5.29.84,13.19,13.19,0,0,0-4.14,2.27,10.33,10.33,0,0,0-2.68,3.33,8.86,8.86,0,0,0-1,4,11,11,0,0,0,1.72,6.15,19,19,0,0,0,4.52,4.76,40.91,40.91,0,0,0,6.37,3.92l7.33,3.66q3.76,1.87,7.33,4a32.13,32.13,0,0,1,6.37,4.94,22.83,22.83,0,0,1,4.52,6.52,20.21,20.21,0,0,1,1.72,8.61,26.51,26.51,0,0,1-1.62,9.34,20.4,20.4,0,0,1-4.87,7.54,22.83,22.83,0,0,1-8.19,5,33,33,0,0,1-11.5,1.83,35.82,35.82,0,0,1-6.15-.55,23.81,23.81,0,0,1-6.37-2.12,28.93,28.93,0,0,1-6.44-4.43,38,38,0,0,1-6.28-7.47l5.54-5.79a64.76,64.76,0,0,0,4.78,6.85,28.48,28.48,0,0,0,4.62,4.61,16.44,16.44,0,0,0,4.84,2.64A17.07,17.07,0,0,0,1255.8,132.79Z" transform="translate(-183.15 -17.57)"/></g></g></svg>