<?xml version="1.0" encoding="utf-8"?>
<!-- Generator: Adobe Illustrator 19.1.0, SVG Export Plug-In . SVG Version: 6.00 Build 0)  -->
<svg version="1.1" id="Layer_1" xmlns="http://www.w3.org/2000/svg" xmlns:xlink="http://www.w3.org/1999/xlink" x="0px" y="0px"
	 viewBox="785 -32.7 1164 188" style="enable-background:new 785 -32.7 1164 188;" xml:space="preserve">
<style type="text/css">
	.st0{enable-background:new    ;}
	.st1{fill:#FCFCFC;}
</style>
<title>White Logo No Trees</title>
<g id="Layer_2">
	<g id="Layer_1-2">
		<g class="st0">
			<path class="st1" d="M829.9,61.9v48.9H815V8.8h14.9v46.5h44.6V8.8h14.9v102h-14.9V61.9H829.9z"/>
			<path class="st1" d="M938.9,112.5c-4.6,0-9-1-13-3c-4.1-2-7.6-4.7-10.6-8.2c-3-3.4-5.4-7.5-7.2-12.1c-1.8-4.6-2.6-9.6-2.6-14.8
				c0-6.3,0.8-12.1,2.4-17.5c1.6-5.4,3.9-10,6.8-13.9c2.9-3.9,6.5-7,10.6-9.2s8.7-3.3,13.8-3.3c4.5,0,8.6,0.9,12.4,2.7
				c3.7,1.8,6.9,4.2,9.6,7.3c2.7,3.1,4.8,6.6,6.2,10.6c1.5,4,2.2,8.2,2.2,12.6h-51c0,5.3,0.6,10.2,1.8,14.7c1.2,4.5,2.8,8.4,5,11.7
				c2.1,3.3,4.7,5.8,7.6,7.7c3,1.9,6.2,2.8,9.8,2.8c3,0,5.8-0.5,8.5-1.6c2.7-1.1,5.2-2.5,7.4-4.3s4.1-3.8,5.6-6.2
				c1.5-2.3,2.6-4.7,3.3-7.1l3.9,2c-1,4.1-2.6,7.8-4.7,11.4c-2.2,3.5-4.7,6.6-7.6,9.3c-2.9,2.6-6.1,4.7-9.6,6.3
				C945.9,111.7,942.4,112.5,938.9,112.5z M952.4,57.4c0-3-0.5-5.7-1.4-8.3c-0.9-2.6-2.2-4.8-3.8-6.7c-1.6-1.9-3.5-3.4-5.6-4.4
				c-2.1-1.1-4.5-1.6-6.9-1.6c-2,0-4,0.5-5.9,1.6c-1.9,1.1-3.6,2.5-5,4.4c-1.5,1.9-2.7,4.1-3.6,6.6c-1,2.6-1.5,5.3-1.8,8.3
				L952.4,57.4z"/>
			<path class="st1" d="M984.1,32.1h13.5V47c1.3-2.2,2.7-4.3,4.3-6.3c1.5-2,3.1-3.8,4.8-5.3c1.7-1.5,3.4-2.7,5.1-3.6
				s3.6-1.3,5.4-1.3c1.5,0,2.9,0.3,4.1,0.8s2.4,1.2,3.3,2.1c1,0.9,1.7,1.9,2.3,3c0.6,1.1,0.8,2.4,0.8,3.6c0,2.5-0.7,4.5-2.1,5.7
				c-1.4,1.3-3.3,1.9-5.8,1.9c-1.5,0-2.8-0.2-3.7-0.5c-0.9-0.4-1.7-0.8-2.5-1.2c-0.7-0.5-1.5-0.9-2.3-1.2s-1.7-0.5-2.9-0.5
				c-0.9,0-1.8,0.3-2.7,0.9c-0.9,0.6-1.8,1.5-2.7,2.6c-0.9,1.1-1.8,2.4-2.8,3.9c-0.9,1.5-1.9,3.1-2.8,4.9v54.5h-13.5V32.1z"/>
			<path class="st1" d="M1043.7-8.2c1.1,0,2.1,0.2,3,0.6c1,0.4,1.8,1,2.5,1.7c0.7,0.7,1.3,1.5,1.7,2.5c0.4,1,0.6,2,0.6,3
				c0,1.1-0.2,2.1-0.6,3c-0.4,1-1,1.8-1.7,2.5c-0.7,0.7-1.5,1.3-2.5,1.7c-1,0.4-2,0.6-3,0.6c-1.1,0-2.1-0.2-3-0.6
				c-0.9-0.4-1.8-1-2.5-1.7c-0.7-0.7-1.3-1.5-1.7-2.5c-0.4-1-0.6-2-0.6-3c0-1.1,0.2-2.1,0.6-3c0.4-1,1-1.8,1.7-2.5
				c0.7-0.7,1.5-1.3,2.5-1.7C1041.6-7.9,1042.6-8.2,1043.7-8.2z M1037.1,35l9.6-4.5h4v80.3h-13.5V35z"/>
			<path class="st1" d="M1103.6,100.8c-1.8,3.6-4.2,6.5-7.3,8.6c-3,2.1-6.7,3.1-11.2,3.1c-2.3,0-4.3-0.4-6-1.3
				c-1.7-0.9-3.1-2.1-4.2-3.7s-1.9-3.5-2.5-5.8c-0.5-2.2-0.8-4.7-0.8-7.5V38.7h-11.9v-3.9c3.8,0,7-0.8,9.4-2.4
				c2.5-1.6,4.5-3.7,6.1-6.4c1.6-2.7,2.8-5.8,3.7-9.4c0.9-3.6,1.7-7.3,2.4-11.4h3.9v26.9h15.4v6.6h-15.4v55.4c0,1.2,0.2,2.3,0.6,3.3
				s0.9,1.9,1.6,2.7c0.7,0.8,1.4,1.4,2.4,1.8c0.9,0.4,1.9,0.7,2.9,0.7c1.5,0,2.9-0.4,4.2-1.3c1.3-0.9,2.3-1.9,3.3-3.2L1103.6,100.8z
				"/>
			<path class="st1" d="M1162.2,110.8h-13.6V100c-1.6,1.4-3.2,2.9-4.7,4.3s-3.2,2.8-5,4c-1.8,1.2-3.8,2.2-6,3
				c-2.2,0.8-4.7,1.1-7.6,1.1c-2.7,0-5.1-0.5-7.3-1.5c-2.2-1-4-2.4-5.5-4.1s-2.7-3.8-3.5-6.2c-0.8-2.4-1.2-5-1.2-7.8
				c0-3.4,0.6-6.4,1.8-9.1c1.2-2.7,2.8-5.1,4.8-7.3c2-2.1,4.4-4.1,7.1-5.7c2.7-1.7,5.6-3.1,8.6-4.5c3-1.3,6.1-2.5,9.3-3.5
				c3.2-1,6.3-2,9.4-2.9V55c0-3.6-0.3-6.6-0.9-9c-0.6-2.5-1.5-4.5-2.6-6c-1.1-1.5-2.5-2.6-4.2-3.3c-1.6-0.7-3.5-1-5.5-1
				c-2.3,0-4.2,0.3-5.6,1c-1.4,0.7-2.6,1.6-3.4,2.7c-0.8,1.1-1.4,2.4-1.7,3.8c-0.3,1.4-0.4,2.9-0.4,4.4c0,1.4-0.1,2.7-0.3,4
				c-0.2,1.3-0.5,2.4-1.1,3.3s-1.2,1.7-2.1,2.3c-0.9,0.6-2,0.9-3.3,0.9c-1.1,0-2-0.2-2.9-0.7c-0.9-0.5-1.6-1.1-2.3-1.9
				c-0.6-0.8-1.1-1.8-1.5-2.9c-0.3-1.1-0.5-2.3-0.5-3.7c0-2.6,0.7-5,2.2-7.3c1.5-2.2,3.5-4.2,6-5.8c2.5-1.6,5.4-2.9,8.8-3.9
				c3.4-1,6.9-1.4,10.6-1.4c4.5,0,8.3,0.5,11.4,1.5c3.1,1,5.6,2.4,7.5,4.2c1.9,1.8,3.3,4,4.1,6.6c0.8,2.6,1.3,5.4,1.3,8.6V110.8z
				 M1148.6,64.9c-2,0.7-4,1.6-6.1,2.5c-2.1,0.9-4.2,2-6.2,3.1c-2,1.1-3.9,2.4-5.8,3.7c-1.8,1.3-3.4,2.8-4.8,4.3
				c-1.4,1.5-2.5,3.1-3.3,4.8c-0.8,1.7-1.2,3.5-1.2,5.3c0,1.9,0.3,3.7,0.9,5.5c0.6,1.7,1.4,3.2,2.5,4.5c1,1.3,2.2,2.3,3.5,3.1
				c1.3,0.8,2.7,1.1,4.2,1.1c1.5,0,3-0.2,4.4-0.7c1.4-0.5,2.7-1.1,4-1.9c1.3-0.8,2.6-1.7,3.9-2.7s2.6-2.2,4-3.3V64.9z"/>
			<path class="st1" d="M1248.3,36.2v6.5h-13c1.4,2.1,2.4,4.6,3.2,7.2c0.8,2.7,1.2,5.3,1.2,7.9c0,4.1-0.8,7.8-2.4,11.2
				c-1.6,3.3-3.8,6.2-6.6,8.6c-2.8,2.4-6.1,4.3-10,5.6c-3.9,1.3-8.2,2-12.8,2c-1.7,0-3.5-0.2-5.3-0.5c-1.8-0.3-3.4-0.8-4.7-1.2
				c-1.3,1.2-2.4,2.6-3.3,4.2c-0.9,1.6-1.3,3.2-1.3,4.9c0,1.6,0.8,2.8,2.3,3.8c1.5,1,3.6,1.5,6.3,1.6l25.4,1.2
				c4,0.2,7.4,0.7,10.1,1.6c2.7,0.9,4.9,2.1,6.5,3.6c1.6,1.5,2.8,3.3,3.4,5.4c0.7,2.1,1,4.4,1,7c0,4.6-0.9,8.7-2.8,12.5
				c-1.8,3.7-4.5,6.9-8,9.5s-7.8,4.6-12.8,6c-5,1.4-10.7,2.1-17,2.1c-11.3,0-19.7-1.5-25.3-4.4c-5.6-2.9-8.4-6.8-8.4-11.6
				c0-2.1,0.5-4.2,1.4-6.2c0.9-2,2.1-3.9,3.6-5.7c1.5-1.8,3.1-3.6,4.9-5.3c1.8-1.7,3.5-3.3,5.3-4.9c-1.3-0.4-2.5-1-3.5-1.6
				c-1.1-0.6-2-1.4-2.8-2.2c-0.8-0.8-1.4-1.7-1.9-2.6c-0.5-1-0.7-2-0.7-3.1c0-1.6,0.4-3.3,1.1-4.9c0.7-1.7,1.7-3.3,3-4.9
				c1.3-1.6,2.8-3,4.4-4.3c1.7-1.3,3.5-2.4,5.4-3.2c-4.6-2.2-8.2-5.4-10.8-9.4c-2.6-4-3.9-8.7-3.9-13.9c0-3.9,0.8-7.5,2.3-10.9
				s3.7-6.4,6.4-9c2.7-2.6,5.9-4.6,9.6-6.1c3.7-1.5,7.6-2.2,11.8-2.2c2,0,4.1,0.2,6.1,0.5c2,0.3,3.9,0.7,5.6,1.2
				c1.7,0.5,3.2,1.1,4.6,1.8c1.3,0.7,2.4,1.4,3.1,2.2H1248.3z M1193.4,110.1c-1,0.9-1.9,1.9-2.7,2.9c-0.8,1.1-1.4,2.2-1.9,3.4
				c-0.5,1.2-0.9,2.4-1.2,3.6c-0.3,1.2-0.4,2.3-0.4,3.4c0,1.8,0.5,3.4,1.6,5.1c1.1,1.6,2.7,3,4.8,4.2c2.1,1.2,4.8,2.2,8.1,2.9
				c3.2,0.7,7,1.1,11.3,1.1c4.5,0,8.6-0.4,12.2-1.2c3.6-0.8,6.7-1.9,9.2-3.3c2.5-1.4,4.4-2.9,5.7-4.6c1.3-1.7,2-3.4,2-5.1
				c0-3.5-1.5-6.1-4.6-7.7c-3-1.6-7.2-2.4-12.5-2.4c-3.3,0-6.6-0.1-9.9-0.3c-3.4-0.2-6.5-0.4-9.4-0.6c-2.9-0.2-5.5-0.5-7.6-0.8
				C1195.9,110.6,1194.3,110.3,1193.4,110.1z M1210.3,81.2c1.9,0,3.8-0.5,5.5-1.5c1.8-1,3.4-2.4,4.7-4.1c1.4-1.8,2.4-3.8,3.2-6.2
				c0.8-2.3,1.2-4.9,1.2-7.5c0-3.9-0.5-7.4-1.4-10.7c-0.9-3.3-2.2-6.2-3.7-8.6c-1.6-2.4-3.4-4.4-5.5-5.7c-2.1-1.4-4.3-2.1-6.6-2.1
				c-2.3,0-4.3,0.5-6,1.6c-1.7,1.1-3.1,2.6-4.1,4.5s-1.9,4.2-2.4,6.7c-0.5,2.6-0.8,5.4-0.8,8.3c0,3.6,0.4,6.9,1.1,10
				c0.8,3.1,1.8,5.7,3.2,8c1.4,2.3,3,4.1,5,5.3C1205.9,80.6,1208,81.2,1210.3,81.2z"/>
			<path class="st1" d="M1291.4,112.5c-4.6,0-9-1-13-3c-4.1-2-7.6-4.7-10.6-8.2c-3-3.4-5.4-7.5-7.2-12.1c-1.8-4.6-2.6-9.6-2.6-14.8
				c0-6.3,0.8-12.1,2.4-17.5c1.6-5.4,3.9-10,6.8-13.9c2.9-3.9,6.5-7,10.6-9.2s8.7-3.3,13.8-3.3c4.5,0,8.6,0.9,12.4,2.7
				c3.7,1.8,6.9,4.2,9.6,7.3c2.7,3.1,4.8,6.6,6.2,10.6c1.5,4,2.2,8.2,2.2,12.6h-51c0,5.3,0.6,10.2,1.8,14.7c1.2,4.5,2.8,8.4,5,11.7
				c2.1,3.3,4.7,5.8,7.6,7.7c3,1.9,6.2,2.8,9.8,2.8c3,0,5.8-0.5,8.5-1.6c2.7-1.1,5.2-2.5,7.4-4.3s4.1-3.8,5.6-6.2
				c1.5-2.3,2.6-4.7,3.3-7.1l3.9,2c-1,4.1-2.6,7.8-4.7,11.4c-2.2,3.5-4.7,6.6-7.6,9.3c-2.9,2.6-6.1,4.7-9.6,6.3
				C1298.4,111.7,1294.9,112.5,1291.4,112.5z M1304.9,57.4c0-3-0.5-5.7-1.4-8.3c-0.9-2.6-2.2-4.8-3.8-6.7c-1.6-1.9-3.5-3.4-5.6-4.4
				c-2.1-1.1-4.5-1.6-6.9-1.6c-2,0-4,0.5-5.9,1.6c-1.9,1.1-3.6,2.5-5,4.4c-1.5,1.9-2.7,4.1-3.6,6.6c-1,2.6-1.5,5.3-1.8,8.3
				L1304.9,57.4z"/>
			<path class="st1" d="M1466.7,13.7c-5.4,0-10.3,1.1-14.8,3.3c-4.5,2.2-8.4,5.3-11.7,9.4c-3.3,4.1-5.9,9-7.7,14.7
				c-1.8,5.8-2.7,12.2-2.7,19.4s1,13.6,3,19.4c2,5.8,4.7,10.7,8.2,14.7c3.4,4.1,7.5,7.2,12.2,9.4c4.7,2.2,9.7,3.3,15,3.3
				c3.9,0,7.4-0.6,10.6-1.8c3.1-1.2,5.9-3,8.4-5.2V64.5h-16.8v-6.1h31.7v44.9c-2.6,1.6-5.2,3-7.8,4.2c-2.6,1.2-5.5,2.3-8.5,3.1
				c-3,0.9-6.4,1.5-10.1,1.9c-3.7,0.4-7.8,0.6-12.5,0.6c-4.9,0-9.5-0.6-14-1.9c-4.4-1.3-8.5-3.1-12.3-5.3c-3.8-2.3-7.2-5.1-10.2-8.3
				c-3-3.2-5.6-6.8-7.7-10.7c-2.1-3.9-3.8-8.1-4.9-12.6c-1.1-4.5-1.7-9.1-1.7-13.9c0-4.8,0.6-9.4,1.7-14s2.7-8.8,4.7-12.8
				c2-4,4.5-7.7,7.5-11c3-3.3,6.3-6.2,10-8.6c3.7-2.4,7.7-4.3,12.1-5.6c4.4-1.3,9-2,13.9-2c4.7,0,9.1,0.7,13,2.2
				c4,1.5,7.6,3.4,10.9,5.8c3.3,2.4,6.2,5.2,8.8,8.4c2.5,3.2,4.7,6.5,6.6,9.9l-6.4,5c-3.7-8.3-7.9-14.3-12.5-18.2
				C1478,15.7,1472.7,13.7,1466.7,13.7z"/>
			<path class="st1" d="M1570,110.8h-13.6V100c-1.6,1.4-3.2,2.9-4.7,4.3s-3.2,2.8-5,4c-1.8,1.2-3.8,2.2-6,3
				c-2.2,0.8-4.7,1.1-7.6,1.1c-2.7,0-5.1-0.5-7.3-1.5c-2.2-1-4-2.4-5.5-4.1s-2.7-3.8-3.5-6.2c-0.8-2.4-1.2-5-1.2-7.8
				c0-3.4,0.6-6.4,1.8-9.1c1.2-2.7,2.8-5.1,4.8-7.3c2-2.1,4.4-4.1,7.1-5.7c2.7-1.7,5.6-3.1,8.6-4.5c3-1.3,6.1-2.5,9.3-3.5
				c3.2-1,6.3-2,9.4-2.9V55c0-3.6-0.3-6.6-0.9-9c-0.6-2.5-1.5-4.5-2.6-6c-1.1-1.5-2.5-2.6-4.2-3.3c-1.6-0.7-3.5-1-5.5-1
				c-2.3,0-4.2,0.3-5.6,1c-1.4,0.7-2.6,1.6-3.4,2.7c-0.8,1.1-1.4,2.4-1.7,3.8c-0.3,1.4-0.4,2.9-0.4,4.4c0,1.4-0.1,2.7-0.3,4
				c-0.2,1.3-0.5,2.4-1.1,3.3s-1.2,1.7-2.1,2.3c-0.9,0.6-2,0.9-3.3,0.9c-1.1,0-2-0.2-2.9-0.7c-0.9-0.5-1.6-1.1-2.3-1.9
				c-0.6-0.8-1.1-1.8-1.5-2.9c-0.3-1.1-0.5-2.3-0.5-3.7c0-2.6,0.7-5,2.2-7.3c1.5-2.2,3.5-4.2,6-5.8c2.5-1.6,5.4-2.9,8.8-3.9
				c3.4-1,6.9-1.4,10.6-1.4c4.5,0,8.3,0.5,11.4,1.5c3.1,1,5.6,2.4,7.5,4.2c1.9,1.8,3.3,4,4.1,6.6c0.8,2.6,1.3,5.4,1.3,8.6V110.8z
				 M1556.4,64.9c-2,0.7-4,1.6-6.1,2.5c-2.1,0.9-4.2,2-6.2,3.1c-2,1.1-3.9,2.4-5.8,3.7c-1.8,1.3-3.4,2.8-4.8,4.3
				c-1.4,1.5-2.5,3.1-3.3,4.8c-0.8,1.7-1.2,3.5-1.2,5.3c0,1.9,0.3,3.7,0.9,5.5c0.6,1.7,1.4,3.2,2.5,4.5c1,1.3,2.2,2.3,3.5,3.1
				c1.3,0.8,2.7,1.1,4.2,1.1c1.5,0,3-0.2,4.4-0.7c1.4-0.5,2.7-1.1,4-1.9c1.3-0.8,2.6-1.7,3.9-2.7s2.6-2.2,4-3.3V64.9z"/>
		</g>
		<g class="st0">
			<path class="st1" d="M1588.2,32.1h13.5V47c1.3-2.2,2.7-4.3,4.3-6.3c1.5-2,3.1-3.8,4.8-5.3c1.7-1.5,3.4-2.7,5.1-3.6
				s3.6-1.3,5.4-1.3c1.5,0,2.9,0.3,4.1,0.8s2.4,1.2,3.3,2.1c1,0.9,1.7,1.9,2.3,3c0.6,1.1,0.8,2.4,0.8,3.6c0,2.5-0.7,4.5-2.1,5.7
				c-1.4,1.3-3.3,1.9-5.8,1.9c-1.5,0-2.8-0.2-3.7-0.5c-0.9-0.4-1.7-0.8-2.5-1.2c-0.7-0.5-1.5-0.9-2.3-1.2s-1.7-0.5-2.9-0.5
				c-0.9,0-1.8,0.3-2.7,0.9c-0.9,0.6-1.8,1.5-2.7,2.6c-0.9,1.1-1.8,2.4-2.8,3.9c-0.9,1.5-1.9,3.1-2.8,4.9v54.5h-13.5V32.1z"/>
		</g>
		<g class="st0">
			<path class="st1" d="M1688,103.1c-1.6,1.5-3.3,2.8-5.1,3.9c-1.8,1.1-3.7,2.1-5.7,2.9c-2,0.8-4,1.4-6,1.9c-2,0.4-4,0.7-5.9,0.7
				c-4,0-7.8-1.1-11.3-3.2c-3.5-2.1-6.6-5.1-9.2-8.7c-2.6-3.7-4.7-7.9-6.2-12.7s-2.3-9.9-2.3-15.3c0-3.6,0.4-7.1,1.3-10.5
				c0.9-3.5,2.1-6.7,3.6-9.9c1.5-3.1,3.4-6,5.6-8.6c2.2-2.6,4.6-4.9,7.3-6.8c2.7-1.9,5.5-3.4,8.6-4.5c3-1.1,6.2-1.6,9.5-1.6
				s6.2,0.7,8.7,2c2.5,1.3,4.8,3.1,6.9,5.3V-3.7l9.5-4.5h4v120.6H1688V103.1z M1688,57.1c0-3.1-0.5-5.9-1.5-8.5
				c-1-2.6-2.3-4.7-3.9-6.6c-1.6-1.8-3.4-3.2-5.5-4.2c-2-1-4.1-1.5-6.2-1.5c-2.7,0-5.3,0.8-7.6,2.3c-2.4,1.6-4.4,3.7-6.2,6.5
				c-1.8,2.8-3.2,6.1-4.2,10s-1.5,8.1-1.5,12.8c0,5,0.6,9.7,1.7,14c1.1,4.4,2.7,8.2,4.6,11.4c2,3.2,4.2,5.8,6.9,7.7s5.4,2.8,8.4,2.8
				c1.4,0,2.9-0.2,4.3-0.7c1.4-0.4,2.8-1,4.1-1.8c1.3-0.7,2.5-1.6,3.7-2.6c1.1-1,2.1-2,3-3.1V57.1z"/>
			<path class="st1" d="M1747.8,112.5c-4.6,0-9-1-13-3c-4.1-2-7.6-4.7-10.6-8.2c-3-3.4-5.4-7.5-7.2-12.1c-1.8-4.6-2.6-9.6-2.6-14.8
				c0-6.3,0.8-12.1,2.4-17.5c1.6-5.4,3.9-10,6.8-13.9c2.9-3.9,6.5-7,10.6-9.2s8.7-3.3,13.8-3.3c4.5,0,8.6,0.9,12.4,2.7
				c3.7,1.8,6.9,4.2,9.6,7.3c2.7,3.1,4.8,6.6,6.2,10.6c1.5,4,2.2,8.2,2.2,12.6h-51c0,5.3,0.6,10.2,1.8,14.7c1.2,4.5,2.8,8.4,5,11.7
				c2.1,3.3,4.7,5.8,7.6,7.7c3,1.9,6.2,2.8,9.8,2.8c3,0,5.8-0.5,8.5-1.6c2.7-1.1,5.2-2.5,7.4-4.3s4.1-3.8,5.6-6.2
				c1.5-2.3,2.6-4.7,3.3-7.1l3.9,2c-1,4.1-2.6,7.8-4.7,11.4c-2.2,3.5-4.7,6.6-7.6,9.3c-2.9,2.6-6.1,4.7-9.6,6.3
				C1754.8,111.7,1751.3,112.5,1747.8,112.5z M1761.4,57.4c0-3-0.5-5.7-1.4-8.3c-0.9-2.6-2.2-4.8-3.8-6.7c-1.6-1.9-3.5-3.4-5.6-4.4
				c-2.1-1.1-4.5-1.6-6.9-1.6c-2,0-4,0.5-5.9,1.6c-1.9,1.1-3.6,2.5-5,4.4c-1.5,1.9-2.7,4.1-3.6,6.6c-1,2.6-1.5,5.3-1.8,8.3
				L1761.4,57.4z"/>
			<path class="st1" d="M1793,32.1h13.6v14.4c4.1-5.3,8.4-9.3,12.9-12c4.5-2.7,9-4,13.6-4c2.4,0,4.6,0.6,6.7,1.9
				c2.1,1.2,3.9,2.9,5.5,5.1c1.5,2.1,2.8,4.7,3.7,7.6c0.9,2.9,1.4,6,1.4,9.3v56.5h-13.6V57c0-5.2-1-9.1-3.1-11.8c-2-2.7-4.7-4-7.8-4
				c-1.4,0-3,0.3-4.6,0.8c-1.6,0.5-3.2,1.3-4.9,2.3c-1.7,1-3.3,2.2-5,3.6c-1.7,1.4-3.2,2.9-4.8,4.7v58.3H1793V32.1z"/>
			<path class="st1" d="M1887.8,107.1c1.9,0,3.6-0.3,5.2-1c1.6-0.7,2.9-1.5,4-2.6c1.1-1.1,2-2.3,2.6-3.7c0.6-1.4,1-2.9,1-4.3
				c0-2.4-0.5-4.5-1.6-6.3c-1-1.8-2.4-3.4-4.1-4.8c-1.7-1.4-3.7-2.7-5.9-3.9c-2.2-1.2-4.5-2.4-6.7-3.6c-2.3-1.2-4.5-2.6-6.7-4
				c-2.2-1.4-4.2-3.1-5.9-5c-1.7-1.9-3.1-4.1-4.1-6.5c-1-2.5-1.6-5.4-1.6-8.8c0-3.2,0.6-6.1,1.8-8.8c1.2-2.7,2.8-5,4.8-7
				c2.1-2,4.5-3.5,7.4-4.6s6-1.6,9.4-1.6c2.3,0,4.4,0.2,6.4,0.5c2,0.4,3.9,1.1,5.8,2.1c1.9,1.1,3.8,2.5,5.7,4.4
				c1.9,1.9,3.9,4.4,5.9,7.5l-5,5.1c-2.6-4.9-5.5-8.5-8.7-10.9c-3.2-2.4-6.6-3.6-10.3-3.6c-1.9,0-3.7,0.3-5.3,0.8
				c-1.6,0.6-3,1.3-4.1,2.3c-1.1,1-2,2.1-2.7,3.3c-0.6,1.3-1,2.6-1,4c0,2.3,0.6,4.4,1.7,6.2s2.7,3.3,4.5,4.8c1.9,1.4,4,2.7,6.4,3.9
				c2.4,1.2,4.8,2.4,7.3,3.7c2.5,1.2,4.9,2.6,7.3,4c2.4,1.4,4.5,3.1,6.4,4.9c1.9,1.9,3.4,4.1,4.5,6.5c1.1,2.5,1.7,5.3,1.7,8.6
				c0,3.3-0.5,6.4-1.6,9.3s-2.7,5.4-4.9,7.5c-2.2,2.1-4.9,3.8-8.2,5c-3.3,1.2-7.1,1.8-11.5,1.8c-2,0-4-0.2-6.1-0.5
				c-2.1-0.4-4.2-1.1-6.4-2.1c-2.1-1-4.3-2.5-6.4-4.4c-2.1-1.9-4.2-4.4-6.3-7.5l5.5-5.8c1.7,2.7,3.2,5,4.8,6.8s3.1,3.4,4.6,4.6
				c1.6,1.2,3.2,2.1,4.8,2.6C1884,106.8,1885.8,107.1,1887.8,107.1z"/>
		</g>
	</g>
</g>
</svg>
